# xmcd
#
# Track frame offsets:
# 182
# 14070
# 28677
# 39885
# 55880
# 68222
# 85457
# 102880
# 120085
# 133340
# 148580
#
# Disc length: 2250 seconds
#
#
# Revision: 4
# Processed by: cddbd v1.4PL0 Copyright (c) Steve Scherf et al.
# Submitted via: FreeRIP 2.00 
#
DISCID=9508c80b
DTITLE=Cuby and The Blizzards and Eddy Boyd - Praise The Blues
DYEAR=1900
DGENRE=Blues
TTITLE0=Nothin´ But Trouble
TTITLE1=No Place Like Home
TTITLE2=Understanding
TTITLE3=Twenty-Four Hours Of Fear
TTITLE4=The Hammond Sings The Blues
TTITLE5=The Big Boat
TTITLE6=Mr. Highway Man
TTITLE7=I´m In Your Corner
TTITLE8=Swinging Boogie
TTITLE9=Early Grave
TTITLE10=Little Red Rooster
EXTD=
EXTT0=
EXTT1=
EXTT2=
EXTT3=
EXTT4=
EXTT5=
EXTT6=
EXTT7=
EXTT8=
EXTT9=
EXTT10=
PLAYORDER=
